<?xml version="1.0" encoding="UTF-8" standalone="no"?>
<!-- Created with Inkscape (http://www.inkscape.org/) -->

<svg
   xmlns:dc="http://purl.org/dc/elements/1.1/"
   xmlns:cc="http://creativecommons.org/ns#"
   xmlns:rdf="http://www.w3.org/1999/02/22-rdf-syntax-ns#"
   xmlns:svg="http://www.w3.org/2000/svg"
   xmlns="http://www.w3.org/2000/svg"
   xmlns:xlink="http://www.w3.org/1999/xlink"
   xmlns:sodipodi="http://sodipodi.sourceforge.net/DTD/sodipodi-0.dtd"
   xmlns:inkscape="http://www.inkscape.org/namespaces/inkscape"
   width="300"
   height="300"
   id="svg2"
   version="1.1"
   inkscape:version="0.48.2 r9819"
   sodipodi:docname="logo.svg"
   inkscape:export-filename="/Users/VoQn/Projects/macchiato/test/img/macchiato.png"
   inkscape:export-xdpi="95.998154"
   inkscape:export-ydpi="95.998154">
  <defs
     id="defs4" />
  <sodipodi:namedview
     id="base"
     pagecolor="#ffffff"
     bordercolor="#666666"
     borderopacity="1.0"
     inkscape:pageopacity="0.0"
     inkscape:pageshadow="2"
     inkscape:zoom="1.87"
     inkscape:cx="164.39394"
     inkscape:cy="148.24191"
     inkscape:document-units="px"
     inkscape:current-layer="layer3"
     showgrid="true"
     inkscape:window-width="1243"
     inkscape:window-height="756"
     inkscape:window-x="0"
     inkscape:window-y="0"
     inkscape:window-maximized="0">
    <inkscape:grid
       type="xygrid"
       id="grid2985"
       empspacing="5"
       visible="true"
       enabled="true"
       snapvisiblegridlinesonly="true"
       spacingx="1px"
       spacingy="1px"
       originy="20px"
       empcolor="#0000ff"
       empopacity="0.25098039"
       color="#0000ff"
       opacity="0.0627451" />
    <inkscape:grid
       type="xygrid"
       id="grid3863"
       empspacing="5"
       visible="true"
       enabled="true"
       snapvisiblegridlinesonly="true"
       empcolor="#0000ff"
       empopacity="0.0627451"
       color="#0000ff"
       opacity="0.03137255" />
  </sodipodi:namedview>
  <metadata
     id="metadata7">
    <rdf:RDF>
      <cc:Work
         rdf:about="">
        <dc:format>image/svg+xml</dc:format>
        <dc:type
           rdf:resource="http://purl.org/dc/dcmitype/StillImage" />
        <dc:title></dc:title>
      </cc:Work>
    </rdf:RDF>
  </metadata>
  <g
     inkscape:groupmode="layer"
     id="layer3"
     inkscape:label="Cup"
     style="opacity:1;display:inline"
     sodipodi:insensitive="true">
    <path
       style="fill:#ffffff;stroke:#000000;stroke-width:2;stroke-linecap:butt;stroke-linejoin:miter;stroke-miterlimit:4;stroke-opacity:1;stroke-dasharray:none;display:inline"
       d="m 258.62817,229.41243 c 0,0 21.2132,21.21321 35.35533,35.35534 14.14214,14.14214 -14.14213,42.42641 -28.28427,28.28427 -14.14213,-14.14213 -35.35534,-35.35533 -35.35534,-35.35533 z"
       id="path3784"
       inkscape:connector-curvature="0" />
    <path
       transform="matrix(1.1461538,0,0,1.1461538,-21.923077,-21.923077)"
       d="m 280,150 a 130,130 0 1 1 -260,0 130,130 0 1 1 260,0 z"
       sodipodi:ry="130"
       sodipodi:rx="130"
       sodipodi:cy="150"
       sodipodi:cx="150"
       id="use3780"
       style="fill:#ffffff;fill-opacity:0.98550726000000000;stroke:#000000;stroke-width:1.74496651000000003;stroke-miterlimit:4;stroke-dasharray:none;display:inline"
       sodipodi:type="arc" />
    <path
       sodipodi:type="arc"
       style="fill:#000000;fill-opacity:0.98550726000000000;stroke:none;display:inline"
       id="path3010"
       sodipodi:cx="150"
       sodipodi:cy="150"
       sodipodi:rx="130"
       sodipodi:ry="130"
       d="m 280,150 a 130,130 0 1 1 -260,0 130,130 0 1 1 260,0 z"
       transform="matrix(1.0384615,0,0,1.0384615,-5.7692308,-5.7692308)" />
  </g>
  <g
     inkscape:label="Base"
     inkscape:groupmode="layer"
     id="layer1"
     transform="translate(0,-752.36218)"
     style="opacity:0.37226281;display:none"
     sodipodi:insensitive="true">
    <path
       sodipodi:type="arc"
       style="fill:none;stroke:#000000"
       id="path2987"
       sodipodi:cx="150"
       sodipodi:cy="150"
       sodipodi:rx="150"
       sodipodi:ry="150"
       d="m 300,150 a 150,150 0 1 1 -300,0 150,150 0 1 1 300,0 z"
       transform="translate(0,752.36218)" />
    <path
       sodipodi:type="arc"
       style="fill:none;stroke:#000000;stroke-width:1.11111116;stroke-miterlimit:4;stroke-opacity:1;stroke-dasharray:none"
       id="path2989"
       sodipodi:cx="150"
       sodipodi:cy="150"
       sodipodi:rx="150"
       sodipodi:ry="150"
       d="m 300,150 a 150,150 0 1 1 -300,0 150,150 0 1 1 300,0 z"
       transform="matrix(0.9,0,0,0.9,15.000001,767.36218)" />
    <path
       sodipodi:type="arc"
       style="fill:none;stroke:#00c5e7;stroke-width:1;stroke-miterlimit:4;stroke-opacity:1;stroke-dasharray:none"
       id="path2991"
       sodipodi:cx="120"
       sodipodi:cy="100"
       sodipodi:rx="20"
       sodipodi:ry="20"
       d="m 140,100 a 20,20 0 1 1 -40,0 20,20 0 1 1 40,0 z"
       transform="translate(-20,752.36218)" />
    <path
       sodipodi:type="arc"
       style="fill:none;stroke:#00c5e7;stroke-width:1;stroke-miterlimit:4;stroke-opacity:1;stroke-dasharray:none"
       id="path2993"
       sodipodi:cx="160"
       sodipodi:cy="100"
       sodipodi:rx="20"
       sodipodi:ry="20"
       d="m 180,100 a 20,20 0 1 1 -40,0 20,20 0 1 1 40,0 z"
       transform="translate(0,752.36218)" />
    <path
       sodipodi:type="arc"
       style="fill:none;stroke:#00c5e7;stroke-width:1;stroke-miterlimit:4;stroke-opacity:1;stroke-dasharray:none"
       id="path2995"
       sodipodi:cx="200"
       sodipodi:cy="100"
       sodipodi:rx="20"
       sodipodi:ry="20"
       d="m 220,100 a 20,20 0 1 1 -40,0 20,20 0 1 1 40,0 z"
       transform="translate(20,752.36218)" />
    <use
       x="0"
       y="0"
       xlink:href="#path2991"
       id="use2997"
       transform="translate(-20,100)"
       width="300"
       height="300"
       style="stroke:#00c5e7;stroke-opacity:1" />
    <use
       x="0"
       y="0"
       xlink:href="#path2993"
       id="use2999"
       transform="translate(-20,100)"
       width="300"
       height="300"
       style="stroke:#00c5e7;stroke-opacity:1" />
    <use
       x="0"
       y="0"
       xlink:href="#path2995"
       id="use3001"
       transform="translate(-20,100)"
       width="300"
       height="300"
       style="stroke:#00c5e7;stroke-opacity:1" />
    <path
       sodipodi:type="arc"
       style="fill:none;stroke:#00c5e7;stroke-width:1;stroke-miterlimit:4;stroke-opacity:1;stroke-dasharray:none"
       id="path3003"
       sodipodi:cx="50"
       sodipodi:cy="110"
       sodipodi:rx="10"
       sodipodi:ry="10"
       d="m 60,110 a 10,10 0 1 1 -20,0 10,10 0 1 1 20,0 z"
       transform="translate(0,772.36218)" />
    <path
       sodipodi:type="arc"
       style="fill:none;stroke:#00c5e7;stroke-width:0.65843624;stroke-miterlimit:4;stroke-opacity:1;stroke-dasharray:none"
       id="path3005"
       sodipodi:cx="80"
       sodipodi:cy="100"
       sodipodi:rx="40"
       sodipodi:ry="40"
       d="m 120,100 a 40,40 0 1 1 -80,0 40,40 0 1 1 80,0 z"
       transform="matrix(1.51875,0,0,1.51875,-22.25,741.23718)" />
    <use
       x="0"
       y="0"
       xlink:href="#path3005"
       id="use3843"
       transform="translate(100,19.25)"
       width="300"
       height="300"
       style="stroke:#00c5e7;stroke-opacity:1" />
    <path
       transform="matrix(1.45,0,0,1.45,-3,702.86218)"
       d="m 60,110 a 10,10 0 1 1 -20,0 10,10 0 1 1 20,0 z"
       sodipodi:ry="10"
       sodipodi:rx="10"
       sodipodi:cy="110"
       sodipodi:cx="50"
       id="use3849"
       style="fill:none;stroke:#00c5e7;stroke-width:0.68965524;stroke-miterlimit:4;stroke-opacity:1;stroke-dasharray:none"
       sodipodi:type="arc" />
    <use
       x="0"
       y="0"
       xlink:href="#use3849"
       id="use3851"
       transform="matrix(0.33333333,0,0,0.33333333,76.833334,649.74146)"
       width="300"
       height="300" />
    <use
       x="0"
       y="0"
       xlink:href="#use3851"
       id="use3853"
       transform="translate(40.166666,-69.833337)"
       width="300"
       height="300" />
    <use
       x="0"
       y="0"
       xlink:href="#use3853"
       id="use3855"
       transform="translate(59.833334,0.16666659)"
       width="300"
       height="300" />
    <use
       x="0"
       y="0"
       xlink:href="#use3855"
       id="use3857"
       transform="translate(-40,69.666667)"
       width="300"
       height="300" />
    <use
       x="0"
       y="0"
       xlink:href="#use3849"
       id="use3861"
       transform="translate(160.5,80.5)"
       width="300"
       height="300" />
  </g>
  <g
     inkscape:groupmode="layer"
     id="layer2"
     inkscape:label="Type"
     style="opacity:1;display:inline"
     sodipodi:insensitive="true">
    <path
       style="fill:#ffffff;stroke:#ffffff;stroke-width:1px;stroke-linecap:butt;stroke-linejoin:miter;stroke-opacity:1"
       d="m 40,130 c 0,-15 20,-50 60,-50 11,0 20,9 20,20 0,20 -40,90 -20,90 20,0 20,-110 60,-110 11,0 20,9 20,20 0,20 -40,90 -20,90 20,0 20,-110 60,-110 11,0 20,9 20,20 0,20 -25,80 -25,90 0,9 6,15 15,15 20,0 30,-30 30,-45 0,31 -24,60 -60,60 -11,0 -20,-9 -20,-20 0,-20 40,-90 20,-90 -20,0 -20,110 -60,110 -11,0 -20,-9 -20,-20 0,-20 40,-90 20,-90 -20,0 -20,110 -60,110 -11,0 -20,-9 -20,-20 0,-20 47,-105 10,-105 -8,0 -15,7 -15,15 0,8 5,13.74219 5,20 0,5 -3.75,10 -10,10 -5,0 -10,-5 -10,-10 z"
       id="path3008"
       inkscape:connector-curvature="0"
       sodipodi:nodetypes="scczcczccsccsczcszcccsscs" />
  </g>
</svg>
